
<svg xmlns="http://www.w3.org/2000/svg" version="1.1" xmlns:xlink="http://www.w3.org/1999/xlink" preserveAspectRatio="none" x="0px" y="0px" width="550px" height="400px" viewBox="0 0 550 400">
<defs>
<g id="Layer2_0_FILL">
<path fill="#93C92B" stroke="none" d="
M 436.1 430.9
Q 436.1 425.6 428.95 421.8 421.75 418.05 411.6 418.05 401.45 418.05 394.25 421.8 387.1 425.6 387.1 430.9 387.1 436.2 394.25 439.95 401.45 443.7 411.6 443.7 421.75 443.7 428.95 439.95 436.1 436.2 436.1 430.9 Z"/>
</g>

<g id="Layer1_0_MEMBER_0_FILL">
<path fill="#68615F" stroke="none" d="
M 401.7 388.7
Q 397.9 388.7 395.25 389.55 392.55 390.35 392.55 391.55
L 392.75 397.05
Q 392.95 398.2 395.6 398.95 398.2 399.75 401.85 399.75 405.2 399.75 408.2 396.25 410.8 393.3 410.8 391.55 410.8 390.35 408.15 389.55 405.45 388.7 401.7 388.7 Z"/>
</g>

<g id="Layer1_1_MEMBER_0_MEMBER_0_FILL">
<path fill="#E0DCCD" stroke="none" d="
M 423.5 395.55
L 419.9 391.15 414.3 398.75 408.3 398.75 402.6 390.1 395.9 396.75 398.6 403.55 406.65 405.95 412.85 403.8 414.3 404.3 423.25 400.75 423.25 400 425.8 398.8 427.6 395.1 423.5 395.55 Z"/>
</g>

<g id="Layer1_1_MEMBER_0_MEMBER_1_FILL">
<path fill="#E0DCCD" stroke="none" d="
M 399.05 393.65
L 402.6 390.1 407.75 388.35 411.3 392.6 421.4 390.1 419.9 384.45 416.25 378.85 410.6 387.8 400.45 385.1 399.05 393.65 Z"/>
</g>

<g id="Layer1_1_MEMBER_0_MEMBER_2_FILL">
<path fill="#E0DCCD" stroke="none" d="
M 406.3 384.1
L 405.15 377.6 402.2 382.85 406.3 384.1 Z"/>
</g>

<g id="Layer1_1_MEMBER_0_MEMBER_3_FILL">
<path fill="#E0DCCD" stroke="none" d="
M 399.2 393.1
L 402.4 380.2 405.1 375.35 407.65 376.35 408.5 373.9 394.9 374.55 397.25 380
Q 397.15 383.2 396 386.9 394.9 390.4 394.9 391.35 395.3 392.5 397.3 392.9 398.3 393.1 399.2 393.1 Z"/>
</g>

<g id="Layer1_1_MEMBER_1_MEMBER_0_FILL">
<path fill="#E0DCCD" stroke="none" d="
M 410.7 413.5
L 416.45 410.65 417.9 399.45 401.05 399.9 402.95 411.2 410.7 413.5 Z"/>
</g>

<g id="Layer1_1_MEMBER_2_MEMBER_0_FILL">
<path fill="#E0DCCD" stroke="none" d="
M 428.6 430.95
L 420.1 411.35 413.35 414.55 402 412.95 401.15 409.75 396.5 424.8 397.4 434.2 403 435.45 403.75 435.05 408.2 435.95 408.2 436.6 413.75 437.8 428.6 430.95 Z"/>
</g>

<g id="Layer1_1_MEMBER_2_MEMBER_1_FILL">
<path fill="#E0DCCD" stroke="none" d="
M 417.15 408.1
L 406.6 407.25 401.15 409.75 402 412.95 413.35 414.55 420.1 411.35 417.15 408.1 Z"/>
</g>

<g id="Layer1_2_MEMBER_0_FILL">
<path fill="#273435" stroke="none" d="
M 405.35 422.75
L 407.45 423.05 407.5 420.6
Q 407.5 420.35 407.25 420 406.9 419.55 406.4 419.5 405.95 419.45 405.6 419.9 405.45 420.15 405.35 420.35
L 405.35 422.75 Z"/>
</g>

<g id="Layer1_2_MEMBER_1_FILL">
<path fill="#273435" stroke="none" d="
M 417.25 399.9
L 417.25 401.9 420.55 400.65 420.55 398.6 417.25 399.9 Z"/>
</g>

<g id="Layer1_2_MEMBER_2_FILL">
<path fill="#273435" stroke="none" d="
M 415.4 384.65
L 414.95 386.75 417.45 385.9 416.95 384.1 415.4 384.65 Z"/>
</g>

<g id="Layer1_3_MEMBER_0_FILL">
<path fill="#68615F" stroke="none" d="
M 417.6 418.6
L 417.6 419.95 419.2 422.85 420.55 421.9 420.3 418.6 418.9 417.9 417.6 418.6 Z"/>
</g>

<g id="Layer1_4_MEMBER_0_MEMBER_0_FILL">
<path fill="#77543D" stroke="none" d="
M 408.2 436.05
L 408.35 431 403.75 430.05 403.75 435.05 408.2 436.05 Z"/>
</g>

<g id="Layer1_4_MEMBER_1_MEMBER_0_FILL">
<path fill="#664132" stroke="none" d="
M 412.55 414.45
L 413.75 438.35 416.1 442.45 418.55 441.85
Q 418.2 441.2 417.2 436.85 416.2 432.65 416.05 431.25
L 415 415.05 414.15 414.2 412.55 414.45 Z"/>
</g>

<g id="Layer1_4_MEMBER_1_MEMBER_1_FILL">
<path fill="#664132" stroke="none" d="
M 398.7 434.45
L 403 413.1 401.85 412.45 400.95 412.95
Q 397.5 427.45 396.5 429 393 434.45 391.8 435.25
L 392.95 436.1 398.7 434.45 Z"/>
</g>

<g id="Layer1_4_MEMBER_1_MEMBER_2_FILL">
<path fill="#664132" stroke="none" d="
M 420.65 410.95
L 419.85 410.95 419.6 411.6 426.75 431.8 432.65 432.2 432.9 430.85
Q 428.8 427.3 428.05 426.1 427.3 424.95 420.65 410.95 Z"/>
</g>

<g id="Layer1_4_MEMBER_1_MEMBER_3_FILL">
<path fill="#664132" stroke="none" d="
M 396.55 425.35
L 401.3 410.3 401.7 409.45 401.2 409.15 400.65 409.85
Q 397.2 421.1 396.85 421.75 396.45 422.35 395 424.1
L 396.55 425.35 Z"/>
</g>

<g id="Layer1_4_MEMBER_2_MEMBER_0_FILL">
<path fill="#664132" stroke="none" d="
M 413.1 417.1
L 412.65 416.45 402.65 414.8 401.85 415.15 401.85 416.35 413.1 418.15 413.1 417.1 Z"/>
</g>

<g id="Layer1_4_MEMBER_2_MEMBER_1_FILL">
<path fill="#664132" stroke="none" d="
M 415 415.95
L 415.15 417.65 420.85 414.4 420.85 413.4 420.2 413.3 415 415.95 Z"/>
</g>

<g id="Layer1_4_MEMBER_2_MEMBER_2_FILL">
<path fill="#664132" stroke="none" d="
M 400.95 412.95
L 401.35 412.75 401 411.15 400.5 410.95 400.25 411.85 400.5 414.8 400.95 412.95 Z"/>
</g>

<g id="Layer1_4_MEMBER_2_MEMBER_3_FILL">
<path fill="#664132" stroke="none" d="
M 409.75 431.6
L 409.75 430.15 402.15 428.55 402.15 429.9 409.75 431.6 Z"/>
</g>

<g id="Layer1_4_MEMBER_2_MEMBER_4_FILL">
<path fill="#664132" stroke="none" d="
M 405.35 422.75
L 405 422.85 404.2 422.75 404.2 423.4 408.4 424.2 408.4 423.45 407.45 423.25 407.45 423.05 405.35 422.75 Z"/>
</g>

<g id="Layer1_4_MEMBER_2_MEMBER_5_FILL">
<path fill="#664132" stroke="none" d="
M 399.25 380.1
Q 397.2 379.75 397 379.15
L 396.9 378.85 396.65 379.1 396.65 380.05
Q 396.65 380.75 399.25 381.2 401.35 381.55 402.55 381.15
L 402.65 380.1
Q 400.8 380.35 399.25 380.1 Z"/>
</g>

<g id="Layer1_4_MEMBER_2_MEMBER_6_FILL">
<path fill="#664132" stroke="none" d="
M 398.7 376.3
L 399.45 380.45 400.05 380.5 400.15 380.25 399.4 376.3 398.7 376.3 Z"/>
</g>

<g id="Layer1_4_MEMBER_2_MEMBER_7_FILL">
<path fill="#664132" stroke="none" d="
M 397.7 379.9
L 395.35 375.1 394.7 375.1 397.05 379.8 397.4 380 397.7 379.9 Z"/>
</g>

<g id="Layer1_4_MEMBER_2_MEMBER_8_FILL">
<path fill="#664132" stroke="none" d="
M 408.1 374.8
L 405.55 379.6 405.85 379.65 406.25 379.45 408.8 374.75 408.1 374.8 Z"/>
</g>

<g id="Layer1_4_MEMBER_2_MEMBER_9_FILL">
<path fill="#664132" stroke="none" d="
M 403.2 376.4
L 402.35 380.25 402.55 380.45 403.05 380.35 403.85 376.4 403.2 376.4 Z"/>
</g>

<g id="Layer1_4_MEMBER_3_MEMBER_0_FILL">
<path fill="#664132" stroke="none" d="
M 418.15 402.8
L 418.15 418.7 418.95 419.1 419.7 418.7 419.7 402.15 418.15 402.8 Z"/>
</g>

<g id="Layer1_4_MEMBER_3_MEMBER_1_FILL">
<path fill="#664132" stroke="none" d="
M 416.1 403.6
L 415.1 404 418.2 409.1 418.7 409.35 418.7 408.3 416.1 403.6 Z"/>
</g>

<g id="Layer1_4_MEMBER_3_MEMBER_2_FILL">
<path fill="#664132" stroke="none" d="
M 419.7 406.45
L 419.7 408.7 422.35 401.1 421.4 401.5 419.7 406.45 Z"/>
</g>

<g id="Layer1_5_MEMBER_0_FILL">
<path fill="#405B5A" stroke="none" d="
M 410.7 391.7
L 407.95 388.05 402.6 389.65 395.3 396.8 395.6 397.15 396 396.95 402.55 390.6 408.3 400.65 408.8 400.65 412.8 399.2 414.25 399.8 419.9 391.5 423.4 396.1 428.35 395.3 428.35 394.7 426.95 393.15 421.85 384.25 419.9 384.65 420.6 388.4 417.5 389.7 416.55 389.1 415.55 390.3 410.7 391.7 Z"/>
</g>

<g id="Layer1_5_MEMBER_1_FILL">
<path fill="#405B5A" stroke="none" d="
M 399.15 384.4
L 399.4 384.85 411 387.9 416.25 378.85 419.9 384.45 419.9 384.9 421.15 385.4 421.4 384.95 420.3 383.9 416.4 378.25 405 375.5
Q 400.6 383.05 400.4 383.25
L 399.15 384.4 Z"/>
</g>

<g id="Layer1_5_MEMBER_2_FILL">
<path fill="#405B5A" stroke="none" d="
M 401.9 356.55
Q 400.8 360.45 397.5 366.55 394.35 372.35 394 373.9 394 375.1 396.25 375.85 398.4 376.6 401.65 376.6 404.9 376.6 407.05 375.85 409.25 375.1 409.25 373.9 408.95 373.05 405.8 366.6 402.95 360.8 401.9 356.55 Z"/>
</g>

<g id="Layer1_6_MEMBER_0_FILL">
<path fill="#664132" stroke="none" d="
M 410.05 404.75
L 410.15 414.05 410.85 414.3 411.45 414 411.35 404.3 410.05 404.75 Z"/>
</g>

<g id="Layer1_6_MEMBER_1_FILL">
<path fill="#664132" stroke="none" d="
M 401.15 404.3
L 402.5 411.65 403.05 411.8 403.35 411.75 401.95 404.55 401.15 404.3 Z"/>
</g>

<g id="Layer1_6_MEMBER_2_FILL">
<path fill="#664132" stroke="none" d="
M 417.2 403.05
L 416.15 411.2 416.5 411.3 416.9 411.1 417.9 402.7 417.2 403.05 Z"/>
</g>

<g id="Layer1_6_MEMBER_3_FILL">
<path fill="#664132" stroke="none" d="
M 410.25 413.9
L 410.25 413.25 403.2 411.05 403.35 411.75 410.25 413.9 Z"/>
</g>

<g id="Layer1_6_MEMBER_4_FILL">
<path fill="#664132" stroke="none" d="
M 411.3 413.75
L 416.25 411.15 416.35 410.45 411.3 413.05 411.3 413.75 Z"/>
</g>

<g id="Layer1_6_MEMBER_5_FILL">
<path fill="#664132" stroke="none" d="
M 427.45 395.45
L 427.15 395.5 425.55 398.6 423.05 399.7 423.05 400.45 414.25 403.9 412.85 403.4 406.65 405.55 398.85 403.3 396.25 396.7 396.05 396.7 395.9 396.85 398.6 403.55 406.65 405.95 412.85 403.8 414.3 404.3 423.25 400.75 423.25 400 425.8 398.8 427.45 395.45 Z"/>
</g>

<g id="Layer1_6_MEMBER_6_FILL">
<path fill="#664132" stroke="none" d="
M 406.35 405.85
L 406.9 405.85 406.9 398.2 406.35 397.3 406.35 405.85 Z"/>
</g>

<g id="Layer1_6_MEMBER_7_FILL">
<path fill="#664132" stroke="none" d="
M 412.7 403.45
L 413 403.45 412.9 399.25 412.8 399.2 412.65 399.25 412.7 403.45 Z"/>
</g>

<g id="Layer1_6_MEMBER_8_FILL">
<path fill="#664132" stroke="none" d="
M 414 403.8
L 414.25 404.05 414.5 403.8 414.5 399.45 414.25 399.8 414 399.7 414 403.8 Z"/>
</g>

<g id="Layer1_6_MEMBER_9_FILL">
<path fill="#664132" stroke="none" d="
M 408.05 400.25
L 407.85 399.85 396.45 396.55 396.2 396.55 396.05 396.7 396.25 396.8 408.05 400.25 Z"/>
</g>

<g id="Layer1_6_MEMBER_10_FILL">
<path fill="#664132" stroke="none" d="
M 423.25 395.7
L 423.15 395.55 423.05 395.55 423.05 400.45 423.25 400.65 423.25 395.7 Z"/>
</g>

<g id="Layer1_6_MEMBER_11_FILL">
<path fill="#664132" stroke="none" d="
M 423.25 395.7
L 423.05 395.45 415.05 398.65 414.8 399.05 423.25 395.7 Z"/>
</g>

<g id="Layer1_6_MEMBER_12_FILL">
<path fill="#664132" stroke="none" d="
M 401 385.25
L 400.45 385.1 399.05 393.15 399.65 392.55 401 385.25 Z"/>
</g>

<g id="Layer1_6_MEMBER_13_FILL">
<path fill="#664132" stroke="none" d="
M 411.8 386.5
L 411 387.9 410.7 387.85 410.25 391.6 410.5 391.95 411.15 391.75 411.8 386.5 Z"/>
</g>

<g id="Layer1_6_MEMBER_14_FILL">
<path fill="#664132" stroke="none" d="
M 419.35 383.6
L 420.3 388.7 420.4 388.9 420.85 388.75 419.95 384.15 419.55 383.65 419.35 383.6 Z"/>
</g>

<g id="Layer1_7_MEMBER_0_FILL">
<path fill="#B2C0CE" stroke="none" d="
M 403.85 368.2
L 404.75 368.7 406.3 368 407 366.85 407.25 366.6 407.2 366.25 407.5 363.9 407.75 363.45 407.55 363.15 407.55 361.35 407.1 361.25 406.65 361.35 406.6 363.15 406.3 363.4 406.5 363.75 406.05 365.85 405.8 366 405.8 366.3 404.25 367.3 403.85 368.2 Z"/>
</g>

<g id="Layer1_7_MEMBER_1_MEMBER_0_FILL">
<path fill="#5C6268" stroke="none" d="
M 407.2 366.25
L 406.65 366.45 406.15 366.15 406.05 365.85 405.8 366 405.8 366.6 406.45 367.05 407 366.85 407.25 366.6 407.2 366.25 Z"/>
</g>

<g id="Layer1_7_MEMBER_1_MEMBER_1_FILL">
<path fill="#5C6268" stroke="none" d="
M 406.3 363.4
L 406.5 363.75 406.65 363.9 407.25 364.05 407.5 363.9 407.75 363.45 407.55 363.15 407.25 363.35 406.75 363.35 406.6 363.15 406.3 363.4 Z"/>
</g>

<g id="Layer1_7_MEMBER_1_MEMBER_2_FILL">
<path fill="#5C6268" stroke="none" d="
M 407.1 360.1
L 406.3 360.9 407 361.15 407.85 360.9 407.1 360.1 Z"/>
</g>

<g id="Layer1_7_MEMBER_1_MEMBER_3_FILL">
<path fill="#5C6268" stroke="none" d="
M 407.5 361
L 407.25 361.5 407.35 361.6 407.6 361 407.5 361 Z"/>
</g>

<g id="Nuage1_0_Layer0_0_FILL">
<path fill="#E8E5D9" stroke="none" d="
M 284.6 216.95
Q 287.25 217 287.5 215 287.7 213.15 286.75 212.7 286.4 212.5 286.05 211.5 285.7 210.45 285.25 210.05 284.7 209.55 283.5 211 282.6 212.1 282.15 213.05 281.9 213.65 282.85 215.25 283.85 216.9 284.6 216.95 Z"/>
</g>
</defs>

<g transform="matrix( 1, 0, 0, 1, -127.1,-138.05) ">
<use xlink:href="#Layer2_0_FILL"/>
</g>

<g transform="matrix( 1, 0, 0, 1, -127.1,-138.05) ">
<use xlink:href="#Layer1_0_MEMBER_0_FILL"/>
</g>

<g transform="matrix( 1, 0, 0, 1, -127.1,-138.05) ">
<use xlink:href="#Layer1_1_MEMBER_0_MEMBER_0_FILL"/>
</g>

<g transform="matrix( 1, 0, 0, 1, -127.1,-138.05) ">
<use xlink:href="#Layer1_1_MEMBER_0_MEMBER_1_FILL"/>
</g>

<g transform="matrix( 1, 0, 0, 1, -127.1,-138.05) ">
<use xlink:href="#Layer1_1_MEMBER_0_MEMBER_2_FILL"/>
</g>

<g transform="matrix( 1, 0, 0, 1, -127.1,-138.05) ">
<use xlink:href="#Layer1_1_MEMBER_0_MEMBER_3_FILL"/>
</g>

<g transform="matrix( 1, 0, 0, 1, -127.1,-138.05) ">
<use xlink:href="#Layer1_1_MEMBER_1_MEMBER_0_FILL"/>
</g>

<g transform="matrix( 1, 0, 0, 1, -127.1,-138.05) ">
<use xlink:href="#Layer1_1_MEMBER_2_MEMBER_0_FILL"/>
</g>

<g transform="matrix( 1, 0, 0, 1, -127.1,-138.05) ">
<use xlink:href="#Layer1_1_MEMBER_2_MEMBER_1_FILL"/>
</g>

<g transform="matrix( 1, 0, 0, 1, -127.1,-138.05) ">
<use xlink:href="#Layer1_2_MEMBER_0_FILL"/>
</g>

<g transform="matrix( 1, 0, 0, 1, -127.1,-138.05) ">
<use xlink:href="#Layer1_2_MEMBER_1_FILL"/>
</g>

<g transform="matrix( 1, 0, 0, 1, -127.1,-138.05) ">
<use xlink:href="#Layer1_2_MEMBER_2_FILL"/>
</g>

<g transform="matrix( 1, 0, 0, 1, -127.1,-138.05) ">
<use xlink:href="#Layer1_3_MEMBER_0_FILL"/>
</g>

<g transform="matrix( 1, 0, 0, 1, -127.1,-138.05) ">
<use xlink:href="#Layer1_4_MEMBER_0_MEMBER_0_FILL"/>
</g>

<g transform="matrix( 1, 0, 0, 1, -127.1,-138.05) ">
<use xlink:href="#Layer1_4_MEMBER_1_MEMBER_0_FILL"/>
</g>

<g transform="matrix( 1, 0, 0, 1, -127.1,-138.05) ">
<use xlink:href="#Layer1_4_MEMBER_1_MEMBER_1_FILL"/>
</g>

<g transform="matrix( 1, 0, 0, 1, -127.1,-138.05) ">
<use xlink:href="#Layer1_4_MEMBER_1_MEMBER_2_FILL"/>
</g>

<g transform="matrix( 1, 0, 0, 1, -127.1,-138.05) ">
<use xlink:href="#Layer1_4_MEMBER_1_MEMBER_3_FILL"/>
</g>

<g transform="matrix( 1, 0, 0, 1, -127.1,-138.05) ">
<use xlink:href="#Layer1_4_MEMBER_2_MEMBER_0_FILL"/>
</g>

<g transform="matrix( 1, 0, 0, 1, -127.1,-138.05) ">
<use xlink:href="#Layer1_4_MEMBER_2_MEMBER_1_FILL"/>
</g>

<g transform="matrix( 1, 0, 0, 1, -127.1,-138.05) ">
<use xlink:href="#Layer1_4_MEMBER_2_MEMBER_2_FILL"/>
</g>

<g transform="matrix( 1, 0, 0, 1, -127.1,-138.05) ">
<use xlink:href="#Layer1_4_MEMBER_2_MEMBER_3_FILL"/>
</g>

<g transform="matrix( 1, 0, 0, 1, -127.1,-138.05) ">
<use xlink:href="#Layer1_4_MEMBER_2_MEMBER_4_FILL"/>
</g>

<g transform="matrix( 1, 0, 0, 1, -127.1,-138.05) ">
<use xlink:href="#Layer1_4_MEMBER_2_MEMBER_5_FILL"/>
</g>

<g transform="matrix( 1, 0, 0, 1, -127.1,-138.05) ">
<use xlink:href="#Layer1_4_MEMBER_2_MEMBER_6_FILL"/>
</g>

<g transform="matrix( 1, 0, 0, 1, -127.1,-138.05) ">
<use xlink:href="#Layer1_4_MEMBER_2_MEMBER_7_FILL"/>
</g>

<g transform="matrix( 1, 0, 0, 1, -127.1,-138.05) ">
<use xlink:href="#Layer1_4_MEMBER_2_MEMBER_8_FILL"/>
</g>

<g transform="matrix( 1, 0, 0, 1, -127.1,-138.05) ">
<use xlink:href="#Layer1_4_MEMBER_2_MEMBER_9_FILL"/>
</g>

<g transform="matrix( 1, 0, 0, 1, -127.1,-138.05) ">
<use xlink:href="#Layer1_4_MEMBER_3_MEMBER_0_FILL"/>
</g>

<g transform="matrix( 1, 0, 0, 1, -127.1,-138.05) ">
<use xlink:href="#Layer1_4_MEMBER_3_MEMBER_1_FILL"/>
</g>

<g transform="matrix( 1, 0, 0, 1, -127.1,-138.05) ">
<use xlink:href="#Layer1_4_MEMBER_3_MEMBER_2_FILL"/>
</g>

<g transform="matrix( 1, 0, 0, 1, -127.1,-138.05) ">
<use xlink:href="#Layer1_5_MEMBER_0_FILL"/>
</g>

<g transform="matrix( 1, 0, 0, 1, -127.1,-138.05) ">
<use xlink:href="#Layer1_5_MEMBER_1_FILL"/>
</g>

<g transform="matrix( 1, 0, 0, 1, -127.1,-138.05) ">
<use xlink:href="#Layer1_5_MEMBER_2_FILL"/>
</g>

<g transform="matrix( 1, 0, 0, 1, -127.1,-138.05) ">
<use xlink:href="#Layer1_6_MEMBER_0_FILL"/>
</g>

<g transform="matrix( 1, 0, 0, 1, -127.1,-138.05) ">
<use xlink:href="#Layer1_6_MEMBER_1_FILL"/>
</g>

<g transform="matrix( 1, 0, 0, 1, -127.1,-138.05) ">
<use xlink:href="#Layer1_6_MEMBER_2_FILL"/>
</g>

<g transform="matrix( 1, 0, 0, 1, -127.1,-138.05) ">
<use xlink:href="#Layer1_6_MEMBER_3_FILL"/>
</g>

<g transform="matrix( 1, 0, 0, 1, -127.1,-138.05) ">
<use xlink:href="#Layer1_6_MEMBER_4_FILL"/>
</g>

<g transform="matrix( 1, 0, 0, 1, -127.1,-138.05) ">
<use xlink:href="#Layer1_6_MEMBER_5_FILL"/>
</g>

<g transform="matrix( 1, 0, 0, 1, -127.1,-138.05) ">
<use xlink:href="#Layer1_6_MEMBER_6_FILL"/>
</g>

<g transform="matrix( 1, 0, 0, 1, -127.1,-138.05) ">
<use xlink:href="#Layer1_6_MEMBER_7_FILL"/>
</g>

<g transform="matrix( 1, 0, 0, 1, -127.1,-138.05) ">
<use xlink:href="#Layer1_6_MEMBER_8_FILL"/>
</g>

<g transform="matrix( 1, 0, 0, 1, -127.1,-138.05) ">
<use xlink:href="#Layer1_6_MEMBER_9_FILL"/>
</g>

<g transform="matrix( 1, 0, 0, 1, -127.1,-138.05) ">
<use xlink:href="#Layer1_6_MEMBER_10_FILL"/>
</g>

<g transform="matrix( 1, 0, 0, 1, -127.1,-138.05) ">
<use xlink:href="#Layer1_6_MEMBER_11_FILL"/>
</g>

<g transform="matrix( 1, 0, 0, 1, -127.1,-138.05) ">
<use xlink:href="#Layer1_6_MEMBER_12_FILL"/>
</g>

<g transform="matrix( 1, 0, 0, 1, -127.1,-138.05) ">
<use xlink:href="#Layer1_6_MEMBER_13_FILL"/>
</g>

<g transform="matrix( 1, 0, 0, 1, -127.1,-138.05) ">
<use xlink:href="#Layer1_6_MEMBER_14_FILL"/>
</g>

<g transform="matrix( 1, 0, 0, 1, -127.1,-138.05) ">
<use xlink:href="#Layer1_7_MEMBER_0_FILL"/>
</g>

<g transform="matrix( 1, 0, 0, 1, -127.1,-138.05) ">
<use xlink:href="#Layer1_7_MEMBER_1_MEMBER_0_FILL"/>
</g>

<g transform="matrix( 1, 0, 0, 1, -127.1,-138.05) ">
<use xlink:href="#Layer1_7_MEMBER_1_MEMBER_1_FILL"/>
</g>

<g transform="matrix( 1, 0, 0, 1, -127.1,-138.05) ">
<use xlink:href="#Layer1_7_MEMBER_1_MEMBER_2_FILL"/>
</g>

<g transform="matrix( 1, 0, 0, 1, -127.1,-138.05) ">
<use xlink:href="#Layer1_7_MEMBER_1_MEMBER_3_FILL"/>
</g>

<g transform="matrix( 1, 0, 0, 1, 281.25,210.7) ">
<g transform="matrix( -0.013458251953125, 0.999908447265625, -0.999908447265625, -0.013458251953125, 220.8,-279.2) ">
<use xlink:href="#Nuage1_0_Layer0_0_FILL"/>
</g>
</g>
</svg>
